<?xml version="1.0" encoding="UTF-8"?>
<svg id="_x32_" xmlns="http://www.w3.org/2000/svg" version="1.1" viewBox="0 0 512 512">
  <!-- Generator: Adobe Illustrator 29.1.0, SVG Export Plug-In . SVG Version: 2.1.0 Build 142)  -->
  <defs>
    <style>
      .st0 {
        fill: #0057a6;
      }
    </style>
  </defs>
  <rect class="st0" x="178.4" y="344" width="31" height="31"/>
  <rect class="st0" x="240.5" y="292.2" width="31" height="31"/>
  <rect class="st0" x="240.5" y="240.5" width="31" height="31"/>
  <rect class="st0" x="178.4" y="292.2" width="31" height="31"/>
  <rect class="st0" x="178.4" y="240.5" width="31" height="31"/>
  <rect class="st0" x="240.5" y="344" width="31" height="31"/>
  <rect class="st0" x="178.4" y="142.2" width="155.2" height="51.7"/>
  <path class="st0" d="M253,29c-124.8,0-226,101.2-226,226s101.2,226,226,226,226-101.2,226-226S377.8,29,253,29ZM375,392.2c0,16.2-13.1,29.3-29.3,29.3h-179.3c-16.2,0-29.3-13.1-29.3-29.3V119.8c0-16.2,13.1-29.3,29.3-29.3h179.3c16.2,0,29.3,13.1,29.3,29.3v272.5h0Z"/>
  <rect class="st0" x="302.6" y="292.2" width="31" height="82.8"/>
  <rect class="st0" x="302.6" y="240.5" width="31" height="31"/>
</svg>