<?xml version="1.0" encoding="UTF-8"?>
<svg id="_レイヤー_1" data-name="レイヤー_1" xmlns="http://www.w3.org/2000/svg" version="1.1" viewBox="0 0 150 108">
  <!-- Generator: Adobe Illustrator 29.0.1, SVG Export Plug-In . SVG Version: 2.1.0 Build 192)  -->
  <defs>
    <style>
      .st0 {
        fill: #0057a6;
      }
    </style>
  </defs>
  <path class="st0" d="M9.7,81.4c3.7-3.5,2.2-3.6-1.5-4.9-3.8-1.4-6-4.7-.3-5.4,4.8-.6,12.6,4.3,15.8,2.3,3.4-2.1,7-8,8.8-11.5l1.2-11.6-.4-6.3c0-17.2,5-33,21.3-38.7,16.5-5.7,30.2,6.7,41.8,20l6.6,7.7c.3.3,5.1,6,6.3,7.4h0c3.7,1.3,10.4,3.1,14.3,2.2,3.7-.8,6-9.7,9.8-12.6,4.6-3.5,5.3.5,3.5,4.1-1.8,3.5-2.8,4.6,2.3,4.6,6.7,0,8.2,5.6,2.5,4.9-5.6-.6-8.6,1.8-3.1,2.5,8.1,1.1,7.3,6-.4,3.7-5.8-1.7-6.1.7-.7,2.3,7.4,2.3,6.5,6.7-1.2,4.1-6.8-2.4-6-1.4-5.9,4.8,0,1.4-.3,2.4-.7,3.2l.7.8c1.7,2,1,4.9,0,6.9-1,.1-2,.5-3.1,1.2-.2.1-.4.3-.5.5-.2.2-.3.5-.4.7h0c-5.7,1.8-11.2,3.8-14.9,5.5h.7c.2.2.4.2.6.3,2.5,1.1,4.2,1.4,8.5,2.3.6.1,1.3-.2,1.6-.7,1.3-2.3,2.1-4.9,3.6-7.4l4-2.4c9-.9,11,23-5.4,21.3-5-.5-10.7-2.7-16-5.4-1.3-.7-2.6-1.2-3.7-1.6-1.1-.9-2.5-1.3-4.1-1-.4,0-.7,0-1.1-.1-.2,0-.4,0-.6,0l-14.4,4.3c-1.5.4-1.7,2.5-.4,3.2,2.2,1.3,4.8,2.3,7.7,2.8.7.1,1.4-.1,1.7-.7,1.5-2.5,2.2-5.4,4-8.1.1-.2.3-.3.5-.5.9-.6,1.7-.9,2.5-1.1,1.2.2,2.6.5,4.1,1,5.6,4.6,5,21.9-8.9,20.2-17.5-2.1-22.6-8.5-25.8-8.1l-10.8.7c-2.7.4-7.3,2.1-15.4,4.7-4,1.3-8.1-1.6-8.3-5.8l-.8-25.5c0,0,0-.1,0-.2,0,.1,0,.2,0,.2-1.5,3.5-2.7,6.7-3.1,8.1-1.4,4.7-1.2,4.8,1.7,7.9,4.1,4.4.4,7.9-3.6,3.6-4.3-4.6-2.9-6.1-6.1.3-3.7,7.3-7.4,4.7-3.7-2.1,2.7-4.9.9-6.4-2.1-1.2-4.1,7-8,4-2.9-2.4,3.5-4.4-.4-4-4,.3-3.7,4.5-6.5-.6-1.6-5.2h0ZM125.4,59.1c.2-2.8.5-3.8-3.1-5.8-.7-.4-1.9-1-3.4-1.7l6.4,7.5ZM59.9,30.4c-1.3.5-1.8,2.6-1,4.8.8,2.2,2.5,3.6,3.8,3.1,1.3-.5,1.8-2.6,1-4.8-.8-2.2-2.5-3.5-3.8-3.1h0ZM71.7,26.4c-1.3.5-1.8,2.6-1,4.8.8,2.2,2.5,3.6,3.8,3.1,1.3-.5,1.8-2.6,1-4.8-.8-2.2-2.5-3.6-3.8-3.1h0ZM83.6,81.7c17.6-6.1,32.2-11.2,28.2-22.4-4-11.3-25-24.5-42.6-18.4-17.6,6.1-25.2,29.2-21.2,40.5,4,11.3,17.9,6.4,35.6.3h0Z"/>
</svg>