<?xml version="1.0" encoding="UTF-8"?>
<svg id="_レイヤー_1" xmlns="http://www.w3.org/2000/svg" version="1.1" viewBox="0 0 200 200">
  <!-- Generator: Adobe Illustrator 29.3.1, SVG Export Plug-In . SVG Version: 2.1.0 Build 151)  -->
  <defs>
    <style>
      .st0 {
        fill: #fff;
      }
    </style>
  </defs>
  <g>
    <path class="st0" d="M30.2,87.1c0,1.2.7,1.8,1.9,1.8s1.6,0,3.1-1.3v-4.7c-1.2.4-5,1.6-5,4.2Z"/>
    <path class="st0" d="M61.1,89c1.5,0,2.4-1.3,2.7-1.7v-7.8h0c-.5-.5-1.4-1.6-2.8-1.6s-3.4,1.8-3.4,5.7.8,5.5,3.5,5.5Z"/>
    <path class="st0" d="M157.2,28.3c1.4,0,2.9,0,4.3.1-16.4-13.9-37.6-22.4-60.7-22.4C49,6.1,6.9,48.2,6.9,99.9s42.1,93.8,93.8,93.8.6,0,.9,0c-10.1-10.1-15.7-23.2-15.7-36.6s4.7-25.1,14.6-36.5c4.9-6,8.3-8.1,15.9-13.2-5.8-6.9-14.1-16.8-14.1-33.8,0-26.9,24.2-45.3,54.9-45.3ZM33,113.8c-.2,0-.8,0-1.5-.2-.2,0-1.2-.3-1.4-.3s-.8,0-1.6.4l-1.2-4.3.8-.2c.3.9,1.4,3.7,4.8,3.7s2.4-.4,2.4-2-.4-1.8-3.1-2.9c-3.4-1.4-4.1-2.8-4.1-4.2s1.5-3.4,3.6-3.4,1.4.1,2.1.4c.2,0,.6.2.8.2s.6,0,1.3-.5l1.3,3.9h0s-.8.3-.8.3c-.4-.8-1.5-3.4-4.2-3.4s-2.3.5-2.3,1.8,1.5,2.1,3.2,2.8c2.4,1,4.3,2.3,4.3,4.3s-1.3,3.7-4.3,3.7ZM37.1,90.2c-.7,0-1.7-.4-1.9-1.8-.7.6-2,1.8-4.2,1.8s-3.2-1.2-3.2-2.8c0-3.3,4.5-4.5,7.5-5.2v-2.1c0-1.3-.7-2.5-2.2-2.5s-1.7.8-2,2c-.2.8-.7,1.2-1.4,1.2-1.1,0-1.4-.8-1.4-1.3,0-1.5,2.5-2.6,5-2.6s4.1.6,4.1,2.8v8.1c0,1.1.6,1.3.8,1.3s.7-.2,1.1-.8l.3.2s0,0,0,0h0s0,0,0,0c-.7,1.6-2.1,1.8-2.5,1.8ZM44,113.8c-2.8,0-3-2.7-3-4.3v-7.8h-2.1v-.8c3.2-.2,3.4-3.3,3.4-4.4h.7v4.4h4.1v.8h-4.1v7.8c0,1.1.2,2.8,1.7,2.8s1.8-.8,2.2-1.3l.5.6c-1.4,1.6-2.3,2.1-3.5,2.1ZM47.6,78c-1.3,0-2.3.7-3.2,1.9v7.7c0,.6.4,1.2,1.1,1.2h.7v.8h-5.6v-.8h.7c.6,0,1.1-.6,1.1-1.2v-8.3c0-.4,0-1.3-.9-1.3s-.5,0-1,.2v-.6c-.1,0,3.9-1,3.9-1h0v2c.8-.8,2.1-1.9,4.3-1.9s3.4,2,3.4,3.5v7.4c0,.6.5,1.1,1.1,1.1h.7v.8h-5.6v-.8h.6c.6,0,1.2-.6,1.2-1.3v-6.7c0-1.1-.6-2.8-2.5-2.8ZM53.5,95.4c0,1-.8,1.7-1.7,1.7s-1.7-.8-1.7-1.7.8-1.7,1.7-1.7,1.7.7,1.7,1.7ZM54.8,113.3h-5.8v-.8h.7c.9,0,1.1-.8,1.1-1.4v-8.1c0-.7-.2-1.1-.9-1.1s-.6,0-.9.2v-.6c-.1,0-.1,0-.1,0l4.1-1.2v11c0,.7.3,1.3,1.1,1.3h.8v.8ZM60.4,76.7c.9,0,2.2.4,3.4,1.4v-4.9c0-1-.7-1.5-1.4-1.5s-1,.2-1.2.2l-.2-.6h0s0,0,0,0h0s4.8-1.3,4.8-1.3v17.4c0,.7.4,1.5,1.2,1.5h1v.8h-4.2v-1.2c-.7.7-1.6,1.7-3.3,1.7s-5.2-2.2-5.2-6.7,2.8-6.7,5.1-6.7ZM61.5,113.8c-2.8,0-3-2.7-3-4.3v-7.8h-2.1v-.8c3.2-.2,3.4-3.3,3.4-4.4h.7v4.4h4.1v.8h-4.1v7.8h0c0,1.1.2,2.8,1.7,2.8s1.7-.8,2.2-1.3l.5.6c-1.4,1.6-2.3,2.1-3.5,2.1ZM72.5,113.8c-2.6,0-5.6-1.6-5.6-6.5s2.4-6.9,6.1-6.9,4.3.9,4.3,2.6-.8,1.5-1.5,1.5-1.3,0-1.4-1.4c0-.5-.2-1.8-1.7-1.8-2.2,0-3.3,3.2-3.3,5.7,0,3.7,1.9,5.6,4,5.6s1.9,0,3.6-2.4l.6.6c-.8,1.2-2.4,3-5.2,3ZM92.8,113.3h-5.6v-.8h.6c.5,0,1.2-.6,1.2-1.3v-6.7c0-1.1-.6-2.8-2.5-2.8s-2.3.7-3.2,1.9v7.7c0,.6.5,1.2,1.1,1.2h.7v.8h-5.6v-.8h.7c.6,0,1.1-.6,1.1-1.2v-15c0-.4,0-1.3-.9-1.3s-.5,0-1,.1v-.6c0,0,3.9-.9,3.9-.9h0s0,0,0,0h0v8.9c.7-.8,1.9-2.1,4.3-2.1s3.4,1.9,3.4,3.5v7.4c0,.6.5,1.1,1.1,1.1h.7v.8Z"/>
  </g>
  <path class="st0" d="M172.1,160.8c-11.6-10.3-26.6-23.8-39.3-36.3-8.1,4.5-25.4,12.2-24.8,32.1.5,16.1,10.4,26.5,24.5,31.7,15.5-5.6,29.2-15.1,39.7-27.5h0Z"/>
  <path class="st0" d="M189.2,68.6c-8-11.8-15.6-16.8-30.5-16.8-23.1,0-31.4,12.1-31.4,22,0,14.2,31.5,44.8,57.7,67.3,6.1-12.5,9.5-26.4,9.5-41.2s-1.9-21.5-5.4-31.3Z"/>
</svg>