<?xml version="1.0" encoding="UTF-8"?>
<svg id="_レイヤー_1" data-name="レイヤー_1" xmlns="http://www.w3.org/2000/svg" version="1.1" viewBox="0 0 200 200">
  <!-- Generator: Adobe Illustrator 29.0.1, SVG Export Plug-In . SVG Version: 2.1.0 Build 192)  -->
  <defs>
    <style>
      .st0 {
        fill: #0056a5;
      }

      .st1 {
        fill: #fff;
      }
    </style>
  </defs>
  <g>
    <path class="st0" d="M157.16,28.32c1.45,0,2.87.06,4.28.13-16.39-13.92-37.59-22.35-60.73-22.35C48.98,6.1,6.89,48.19,6.89,99.93s42.09,93.83,93.82,93.83c.31,0,.62,0,.91-.02-10.08-10.12-15.73-23.17-15.73-36.57,0-12.1,4.71-25.09,14.58-36.53,4.93-6.05,8.29-8.06,15.9-13.22-5.82-6.94-14.1-16.81-14.1-33.84,0-26.89,24.19-45.26,54.89-45.26Z"/>
    <path class="st0" d="M172.08,160.78c-11.64-10.29-26.56-23.81-39.34-36.32-8.08,4.48-25.43,12.15-24.82,32.09.51,16.09,10.39,26.5,24.45,31.71,15.54-5.58,29.19-15.15,39.71-27.48Z"/>
    <path class="st0" d="M189.18,68.63c-7.96-11.76-15.56-16.78-30.46-16.78-23.08,0-31.37,12.1-31.37,21.96,0,14.19,31.52,44.78,57.65,67.33,6.1-12.46,9.54-26.44,9.54-41.21,0-10.97-1.91-21.51-5.36-31.3Z"/>
  </g>
  <g>
    <path class="st1" d="M39.53,88.35c-.71,1.6-2.15,1.81-2.46,1.81-.72,0-1.66-.45-1.9-1.81-.69.61-2,1.81-4.24,1.81-2.11,0-3.22-1.25-3.22-2.81,0-3.31,4.52-4.46,7.46-5.19v-2.08c0-1.34-.72-2.52-2.21-2.52s-1.72.84-2.02,2c-.19.8-.73,1.16-1.41,1.16-1.1,0-1.37-.85-1.37-1.34,0-1.5,2.52-2.62,4.97-2.62,1.73,0,4.12.56,4.12,2.79v8.09c0,1.1.63,1.26.84,1.26.2,0,.66-.18,1.12-.76l.32.23ZM35.17,82.89c-1.24.39-5.01,1.57-5.01,4.25,0,1.18.72,1.77,1.88,1.77.24,0,1.56,0,3.13-1.35v-4.67Z"/>
    <path class="st1" d="M44.41,76.64v2.02c.84-.8,2.08-1.93,4.3-1.93,2.5,0,3.45,1.98,3.45,3.55v7.4c0,.6.51,1.14,1.09,1.14h.68v.83h-5.62v-.83h.61c.55,0,1.15-.59,1.15-1.32v-6.67c0-1.13-.63-2.79-2.49-2.79-1.34,0-2.32.73-3.18,1.86v7.72c0,.58.45,1.19,1.08,1.19h.69v.83h-5.63v-.83h.72c.63,0,1.08-.59,1.08-1.21v-8.28c0-.38-.07-1.26-.87-1.26-.05,0-.48.03-.97.16l-.11-.58,4.02-1.01Z"/>
    <path class="st1" d="M61.09,71.38l4.81-1.37v17.36c0,.68.44,1.45,1.17,1.45h.97v.83h-4.22v-1.21c-.69.71-1.64,1.71-3.32,1.71-2.37,0-5.22-2.23-5.22-6.73s2.79-6.7,5.12-6.7c.93,0,2.23.43,3.42,1.42v-4.89c0-.97-.66-1.52-1.37-1.52-.37,0-.97.15-1.17.23l-.19-.6ZM63.82,79.49c-.47-.53-1.37-1.57-2.85-1.57-1.59,0-3.36,1.79-3.36,5.67,0,2.21.8,5.46,3.48,5.46,1.52,0,2.38-1.26,2.73-1.7v-7.85Z"/>
  </g>
  <g>
    <path class="st1" d="M37.02,104.31l-.76.31c-.41-.82-1.55-3.44-4.21-3.44-.88,0-2.28.45-2.28,1.82,0,1.2,1.45,2.06,3.2,2.81,2.37.97,4.34,2.28,4.34,4.3,0,1.74-1.34,3.71-4.34,3.71-.25,0-.76,0-1.54-.17-.21-.05-1.18-.31-1.39-.31-.11,0-.77,0-1.6.39l-1.22-4.27.8-.24c.34.86,1.44,3.68,4.83,3.68,1.26,0,2.44-.41,2.44-2.03,0-.88-.36-1.76-3.15-2.88-3.42-1.36-4.14-2.75-4.14-4.2,0-1.97,1.52-3.4,3.59-3.4.57,0,1.36.12,2.07.38.19.05.63.21.76.21.16,0,.61-.1,1.31-.52l1.3,3.86Z"/>
    <path class="st1" d="M43.13,109.56c0,1.11.15,2.76,1.7,2.76,1.05,0,1.75-.77,2.21-1.26l.53.63c-1.42,1.62-2.31,2.13-3.55,2.13-2.84,0-2.97-2.71-2.97-4.31v-7.78h-2.07v-.83c3.22-.2,3.35-3.29,3.42-4.42h.73v4.42h4.1v.83h-4.1v7.83Z"/>
    <path class="st1" d="M48.78,101.46l4.15-1.24v10.98c0,.68.33,1.3,1.07,1.3h.77v.82h-5.84v-.82h.74c.87,0,1.1-.8,1.1-1.39v-8.09c0-.69-.23-1.13-.93-1.13-.28,0-.62.07-.91.16l-.14-.58ZM53.55,95.36c0,.95-.76,1.71-1.72,1.71s-1.69-.76-1.69-1.71.78-1.69,1.69-1.69,1.72.74,1.72,1.69Z"/>
    <path class="st1" d="M60.62,109.56c0,1.11.16,2.76,1.7,2.76,1.05,0,1.74-.77,2.21-1.26l.51.63c-1.4,1.62-2.3,2.13-3.53,2.13-2.83,0-2.97-2.71-2.97-4.31v-7.78h-2.07v-.83c3.23-.2,3.36-3.29,3.42-4.42h.74v4.42h4.1v.83h-4.1v7.83Z"/>
    <path class="st1" d="M77.63,110.77c-.85,1.18-2.37,3.05-5.17,3.05-2.55,0-5.55-1.56-5.55-6.49,0-4.26,2.43-6.94,6.07-6.94,2.06,0,4.26.93,4.26,2.65,0,.96-.76,1.54-1.5,1.54-.16,0-1.28,0-1.42-1.4-.06-.54-.2-1.85-1.68-1.85-2.23,0-3.28,3.22-3.28,5.69,0,3.68,1.94,5.57,4.01,5.57.4,0,1.92,0,3.62-2.4l.64.58Z"/>
    <path class="st1" d="M83.26,93.67v8.85c.69-.76,1.93-2.13,4.33-2.13s3.42,1.9,3.42,3.55v7.41c0,.6.5,1.14,1.11,1.14h.69v.82h-5.63v-.82h.61c.55,0,1.16-.59,1.16-1.33v-6.66c0-1.13-.63-2.79-2.5-2.79-1.34,0-2.31.73-3.18,1.86v7.72c0,.59.45,1.2,1.08,1.2h.7v.82h-5.63v-.82h.71c.62,0,1.07-.59,1.07-1.21v-14.99c0-.41-.08-1.27-.86-1.27-.05,0-.46.02-.97.15l-.1-.59,4.01-.91Z"/>
  </g>
</svg>