<?xml version="1.0" encoding="UTF-8"?>
<svg id="_レイヤー_1" xmlns="http://www.w3.org/2000/svg" version="1.1" viewBox="0 0 139.5 111">
  <!-- Generator: Adobe Illustrator 29.3.1, SVG Export Plug-In . SVG Version: 2.1.0 Build 151)  -->
  <defs>
    <style>
      .st0 {
        fill: #fff;
        fill-rule: evenodd;
      }
    </style>
  </defs>
  <path class="st0" d="M71.1,1.4h0c-15.5.1-22.4,13.9-28,28.3l-2.9,7.5c-5-.3-12.4,3.6-18.3,1.8-3.4-1.1-5-9.7-8.4-12.7-4.1-3.6-5.1,0-3.6,3.6,1.4,3.5,2.4,4.6-2.5,4.2-6.4-.5-8.2,4.7-2.7,4.5,5.3-.2,8.1,2.3,2.8,2.6-7.8.4-7.4,5.1.2,3.6,5.6-1.1,5.7,1.1.5,2.3-7.2,1.6-6.7,5.9.8,4,6.6-1.7,5.8-.9,5.3,5-.5,5.6,4.3,6,4.8.3.3-4-.8-5.1,3.4-7,3.8-1.8,9.9-3.2,14.8-4.1l-12.4,32.4c20.2-.1,35.8-7,31.6,19.4-2.8.8-5.8.4-8.8,1.3-9.7,7.2,13.3,18.9,16.6,3.7.9-4.2.7-9.4,0-14.3-3.5-22.9,22.5-12,19.1,9.1-2.8.8-5.8.4-8.8,1.3-9.7,7.2,13.3,18.9,16.7,3.7,5.8-26.5-13.4-24.7,23.7-24.9l-10.3-31.8c4.3.8,9.1,2,12.3,3.4,4.2,1.9,3.1,3,3.5,7,.6,5.7,5.3,5.2,4.8-.4-.6-5.9-1.4-6.7,5.2-5.1,7.6,1.8,8-2.4.8-4-5.2-1.1-5.2-3.3.5-2.3,7.5,1.4,7.9-3.3.1-3.6-5.3-.2-2.6-2.8,2.7-2.7,5.5,0,3.7-5-2.7-4.4-4.8.5-3.9-.6-2.6-4.1,1.4-3.6.4-7.2-3.7-3.6-3.4,3.1-4.8,11.7-8.3,12.9-4.8,1.5-10.6-.7-15.3-1.4l-2.5-7.6c-4.8-14.7-12.8-28.1-28.3-28M65.1,26.4c-1.1,0-1.9,1.4-1.9,3.1s.9,3.1,1.9,3.1c1.1,0,1.9-1.4,1.9-3.1,0-1.7-.9-3.1-1.9-3.1M74.4,26.4c-1.1,0-1.9,1.4-1.9,3.1s.9,3.1,1.9,3.1,1.9-1.4,1.9-3.1c0-1.7-.9-3.1-1.9-3.1M69.8,37.7c-14.6,0-26.5,15.2-26.5,24.5,0,9.3,12.1,9.2,26.7,9.1,14.6,0,26.1-.2,26.1-9.5,0-9.3-11.7-24.3-26.3-24.2"/>
</svg>