<?xml version="1.0" encoding="UTF-8"?>
<svg id="_レイヤー_1" xmlns="http://www.w3.org/2000/svg" version="1.1" viewBox="0 0 92.3 106.9">
  <!-- Generator: Adobe Illustrator 29.0.1, SVG Export Plug-In . SVG Version: 2.1.0 Build 192)  -->
  <defs>
    <style>
      .st0, .st1 {
        fill: #0056a5;
      }

      .st0, .st1, .st2 {
        fill-rule: evenodd;
      }

      .st1 {
        stroke: #fff;
        stroke-linecap: round;
        stroke-linejoin: round;
        stroke-width: .5px;
      }

      .st2 {
        fill: #fff;
      }
    </style>
  </defs>
  <path class="st0" d="M17.2,3.7h0C3.1,10.1,2.4,25.5,3.2,40.9l.4,8,.5,8.6,1.9,34.6c18.4-8.3,30-25.1,25.8,1.4-2.8.8-5.8.4-8.8,1.3-9.7,7.2,13.3,18.9,16.6,3.7.9-4.2.7-9.4,0-14.3-3.8-24.4,22.8-13.8,19.1,9.1-2.8.8-5.8.4-8.8,1.3-9.7,7.2,13.3,18.9,16.7,3.7,5.8-26.5-12.3-28.1,21.5-43.4l-22.3-24.8-5.8-6.4-5.4-6C44.1,6.1,31.3-2.8,17.2,3.6M30.8,37.4c-13.3,6-18,24.7-14.2,33.2,3.8,8.5,14.8,3.5,28.1-2.5,13.3-6,23.8-10.8,20-19.3-3.8-8.5-20.6-17.4-33.9-11.4"/>
  <path class="st2" d="M22.2,35c-1.5.6-4.8-3.7-3.7-1.4s3.1,3.8,4.6,3.1c1.5-.6,1.8-3.1.7-5.5-1.1-2.4,0,3.1-1.5,3.7"/>
  <path class="st2" d="M31.9,30.5c-1.5.6-4.8-3.7-3.7-1.4s3.1,3.8,4.6,3.1c1.5-.6,1.8-3.1.7-5.5-1.1-2.4,0,3.1-1.5,3.7"/>
  <path class="st1" d="M9.8,70.9c4.6,1.8,10.3,4.3,13.7,6.8,3.8,2.7,2.4,3.5,2,7.5-.6,5.7,4.2,6.1,4.8.6.6-5.9,0-6.8,6.1-4,7,3.3,8.3-.8,1.5-3.7-4.9-2.1-4.4-4.3.9-2.1,7.1,2.9,8.4-1.7.8-3.5-5.2-1.3-2-3.2,3.2-2.1,5.4,1.2,4.6-4.2-1.8-4.9-4.8-.5-3.7-1.4-1.7-4.6,2.1-3.2,1.8-7-2.9-4.2-3.9,2.4-7.1,10.5-10.7,11-5.1.6-10.4-2.9-14.9-4.4"/>
  <path class="st1" d="M-61.9,30.6c4.7,1.4,10.6,3.6,14.2,5.8,3.9,2.5,2.7,3.4,2.5,7.4-.2,5.7,4.6,5.9,4.8.3.2-5.9-.5-6.8,5.9-4.3,7.2,2.8,8.2-1.3,1.3-3.8-5-1.8-4.7-4,.8-2.2,7.3,2.4,8.3-2.2.6-3.6-5.3-.9-2.2-3.1,3.1-2.3,5.5.8,4.3-4.5-2.1-4.8-4.9-.2-3.8-1.2-2-4.5,1.9-3.4,1.3-7.1-3.2-4-3.8,2.6-6.4,11-9.9,11.6-6.1,1.1-12.9-3.7-17.9-4"/>
  <path class="st1" d="M70,45l-4.3,4.4c-3.3,3.4-6.5,8.7-11.3,10.4-3.4,1.2-9.8-4.8-14.4-5.2-5.4-.5-4.1,3.1-.8,5.1,3.2,1.9,4.6,2.3.5,4.8-5.4,3.4-3.8,8.6.5,5.2,4.2-3.3,7.9-2.9,3.8.5-6,5-2.9,8.5,2.3,2.8,3.9-4.3,5.2-2.5,1.8,1.5-4.8,5.6-1.9,8.7,3,2.7,4.3-5.3,4.1-4.2,7.2.9,3,4.8,7.1,2.3,4-2.6-2.1-3.4-3.7-3.6-1.5-7.7,1.6-3.1,4.7-6.9,7.7-10.2"/>
</svg>