<?xml version="1.0" encoding="UTF-8"?>
<svg id="_レイヤー_1" xmlns="http://www.w3.org/2000/svg" version="1.1" viewBox="0 0 139.52 111">
  <!-- Generator: Adobe Illustrator 29.0.1, SVG Export Plug-In . SVG Version: 2.1.0 Build 192)  -->
  <defs>
    <style>
      .st0 {
        fill: #0056a5;
        fill-rule: evenodd;
      }
    </style>
  </defs>
  <path class="st0" d="M71.1,1.37h0c-15.48.11-22.43,13.87-27.95,28.33l-2.86,7.48c-5.01-.29-12.35,3.6-18.27,1.78-3.44-1.06-5-9.68-8.44-12.74-4.08-3.62-5.11.04-3.64,3.61,1.44,3.48,2.36,4.58-2.5,4.18-6.39-.53-8.19,4.65-2.67,4.47,5.33-.17,8.09,2.35,2.76,2.63-7.81.41-7.36,5.09.16,3.6,5.65-1.12,5.7,1.1.5,2.28-7.21,1.63-6.7,5.88.81,3.96,6.63-1.69,5.81-.89,5.29,5.02-.48,5.57,4.31,6.03,4.8.31.34-4-.82-5.06,3.38-7.02,3.8-1.77,9.87-3.22,14.76-4.08l-12.36,32.38c20.22-.13,35.81-7,31.59,19.44-2.8.78-5.75.43-8.78,1.31-9.67,7.19,13.3,18.94,16.64,3.73.91-4.15.66-9.38-.1-14.34-3.55-22.91,22.49-12.04,19.11,9.12-2.79.78-5.75.43-8.79,1.32-9.66,7.18,13.3,18.94,16.65,3.72,5.82-26.48-13.4-24.66,23.65-24.91l-10.27-31.77c4.34.81,9.11,2,12.29,3.44,4.23,1.91,3.09,2.98,3.48,6.98.56,5.71,5.35,5.19,4.8-.38-.6-5.9-1.42-6.7,5.22-5.09,7.55,1.82,8-2.43.76-3.97-5.22-1.11-5.2-3.33.47-2.29,7.54,1.39,7.93-3.29.11-3.6-5.34-.21-2.61-2.77,2.72-2.67,5.52.1,3.66-5.05-2.73-4.44-4.85.47-3.94-.64-2.56-4.14,1.42-3.59.35-7.24-3.69-3.56-3.4,3.11-4.84,11.75-8.27,12.85-4.8,1.54-10.58-.68-15.26-1.37l-2.47-7.64c-4.76-14.73-12.85-28.06-28.33-27.95M65.1,26.42c-1.06,0-1.91,1.42-1.9,3.15.01,1.73.88,3.14,1.95,3.13,1.06,0,1.91-1.42,1.9-3.15-.01-1.74-.88-3.14-1.94-3.13M74.42,26.36c-1.06,0-1.91,1.42-1.9,3.15.01,1.73.89,3.13,1.95,3.13s1.92-1.42,1.9-3.15c0-1.73-.88-3.14-1.94-3.13M69.84,37.7c-14.57.1-26.52,15.25-26.46,24.54.06,9.29,12.12,9.21,26.69,9.12,14.56-.1,26.12-.17,26.06-9.47-.06-9.3-11.72-24.29-26.29-24.19"/>
</svg>