<svg width="166" height="132" viewBox="0 0 166 132" fill="none" xmlns="http://www.w3.org/2000/svg">
<path fill-rule="evenodd" clip-rule="evenodd" d="M84.7512 0C65.9112 0.13 57.4412 16.89 50.7212 34.49L47.2412 43.6C41.1412 43.25 32.2012 47.99 24.9912 45.77C20.8012 44.48 18.9012 33.98 14.7212 30.26C9.75115 25.85 8.50116 30.3 10.2912 34.65C12.0412 38.89 13.1612 40.22 7.25118 39.73C-0.528817 39.09 -2.71882 45.39 4.00118 45.18C10.4912 44.97 13.8512 48.04 7.36117 48.38C-2.14883 48.88 -1.60883 54.58 7.55117 52.76C14.4312 51.4 14.4812 54.1 8.16116 55.54C-0.618843 57.53 0.00120831 62.69 9.15121 60.36C17.2212 58.3 16.2312 59.28 15.6012 66.48C15.0212 73.26 20.8512 73.82 21.4412 66.86C21.8512 61.99 20.4412 60.7 25.5612 58.31C30.1812 56.15 37.5812 54.39 43.5412 53.35L28.4912 92.77C53.1112 92.61 72.0812 84.25 66.9412 116.44C63.5312 117.39 59.9412 116.96 56.2512 118.04C44.4812 126.79 72.4412 141.1 76.5112 122.58C77.6212 117.53 77.3112 111.16 76.3812 105.13C72.0612 77.23 103.761 90.47 99.6412 116.23C96.2412 117.18 92.6412 116.75 88.9412 117.84C77.1812 126.58 105.131 140.9 109.211 122.37C116.301 90.13 92.8912 92.35 138.001 92.05L125.501 53.37C130.781 54.36 136.591 55.8 140.461 57.56C145.611 59.89 144.221 61.19 144.691 66.06C145.381 73.01 151.211 72.37 150.531 65.6C149.801 58.42 148.801 57.45 156.891 59.4C166.081 61.61 166.631 56.44 157.821 54.57C151.471 53.22 151.491 50.51 158.391 51.78C167.571 53.47 168.041 47.77 158.531 47.4C152.031 47.14 155.351 44.03 161.841 44.15C168.561 44.27 166.301 38 158.521 38.74C152.611 39.31 153.721 37.96 155.411 33.7C157.141 29.33 155.831 24.89 150.921 29.37C146.781 33.15 145.021 43.67 140.851 45.02C135.011 46.9 127.971 44.2 122.271 43.36L119.261 34.06C113.461 16.13 103.611 -0.100001 84.7712 0.0299988M77.4512 30.49C76.1612 30.5 75.1212 32.22 75.1312 34.33C75.1412 36.44 76.2012 38.15 77.5012 38.14C78.7912 38.13 79.8312 36.41 79.8112 34.3C79.8012 32.19 78.7412 30.48 77.4412 30.49M88.7912 30.42C87.5012 30.42 86.4612 32.14 86.4712 34.26C86.4912 36.37 87.5512 38.07 88.8412 38.07C90.1312 38.07 91.1712 36.35 91.1512 34.23C91.1512 32.12 90.0812 30.41 88.7812 30.42M83.2112 44.22C65.4812 44.34 50.9212 62.79 50.9912 74.1C51.0712 85.41 65.7512 85.31 83.4812 85.2C101.211 85.08 115.281 84.99 115.211 73.67C115.141 62.35 100.941 44.1 83.2112 44.22Z" fill="#0056A5"/>
</svg>
